G04 EAGLE Gerber RS-274X export*
G75*
%MOMM*%
%FSLAX34Y34*%
%LPD*%
%IN*%
%IPPOS*%
%AMOC8*
5,1,8,0,0,1.08239X$1,22.5*%
G01*
%ADD10C,0.254000*%


D10*
X0Y0D02*
X825500Y0D01*
X825500Y393700D01*
X0Y393700D01*
X0Y0D01*
X115697Y94632D02*
X115622Y93399D01*
X115473Y92172D01*
X115251Y90957D01*
X114955Y89757D01*
X114587Y88577D01*
X114149Y87422D01*
X113642Y86295D01*
X113068Y85201D01*
X112429Y84143D01*
X111727Y83126D01*
X110965Y82154D01*
X110145Y81229D01*
X109271Y80355D01*
X108346Y79536D01*
X107374Y78773D01*
X106357Y78071D01*
X105299Y77432D01*
X104205Y76858D01*
X103078Y76351D01*
X101923Y75913D01*
X100743Y75545D01*
X99543Y75249D01*
X98328Y75027D01*
X97101Y74878D01*
X95868Y74803D01*
X94632Y74803D01*
X93399Y74878D01*
X92172Y75027D01*
X90957Y75249D01*
X89757Y75545D01*
X88577Y75913D01*
X87422Y76351D01*
X86295Y76858D01*
X85201Y77432D01*
X84143Y78071D01*
X83126Y78773D01*
X82154Y79536D01*
X81229Y80355D01*
X80355Y81229D01*
X79536Y82154D01*
X78773Y83126D01*
X78071Y84143D01*
X77432Y85201D01*
X76858Y86295D01*
X76351Y87422D01*
X75913Y88577D01*
X75545Y89757D01*
X75249Y90957D01*
X75027Y92172D01*
X74878Y93399D01*
X74803Y94632D01*
X74803Y95868D01*
X74878Y97101D01*
X75027Y98328D01*
X75249Y99543D01*
X75545Y100743D01*
X75913Y101923D01*
X76351Y103078D01*
X76858Y104205D01*
X77432Y105299D01*
X78071Y106357D01*
X78773Y107374D01*
X79536Y108346D01*
X80355Y109271D01*
X81229Y110145D01*
X82154Y110965D01*
X83126Y111727D01*
X84143Y112429D01*
X85201Y113068D01*
X86295Y113642D01*
X87422Y114149D01*
X88577Y114587D01*
X89757Y114955D01*
X90957Y115251D01*
X92172Y115473D01*
X93399Y115622D01*
X94632Y115697D01*
X95868Y115697D01*
X97101Y115622D01*
X98328Y115473D01*
X99543Y115251D01*
X100743Y114955D01*
X101923Y114587D01*
X103078Y114149D01*
X104205Y113642D01*
X105299Y113068D01*
X106357Y112429D01*
X107374Y111727D01*
X108346Y110965D01*
X109271Y110145D01*
X110145Y109271D01*
X110965Y108346D01*
X111727Y107374D01*
X112429Y106357D01*
X113068Y105299D01*
X113642Y104205D01*
X114149Y103078D01*
X114587Y101923D01*
X114955Y100743D01*
X115251Y99543D01*
X115473Y98328D01*
X115622Y97101D01*
X115697Y95868D01*
X115697Y94632D01*
X52984Y94877D02*
X52919Y94135D01*
X52790Y93401D01*
X52597Y92681D01*
X52342Y91981D01*
X52027Y91306D01*
X51655Y90660D01*
X51227Y90050D01*
X50748Y89479D01*
X50221Y88952D01*
X49650Y88473D01*
X49040Y88045D01*
X48395Y87673D01*
X47719Y87358D01*
X47019Y87103D01*
X46299Y86910D01*
X45565Y86781D01*
X44823Y86716D01*
X44077Y86716D01*
X43335Y86781D01*
X42601Y86910D01*
X41881Y87103D01*
X41181Y87358D01*
X40506Y87673D01*
X39860Y88045D01*
X39250Y88473D01*
X38679Y88952D01*
X38152Y89479D01*
X37673Y90050D01*
X37245Y90660D01*
X36873Y91306D01*
X36558Y91981D01*
X36303Y92681D01*
X36110Y93401D01*
X35981Y94135D01*
X35916Y94877D01*
X35916Y95623D01*
X35981Y96365D01*
X36110Y97099D01*
X36303Y97819D01*
X36558Y98519D01*
X36873Y99195D01*
X37245Y99840D01*
X37673Y100450D01*
X38152Y101021D01*
X38679Y101548D01*
X39250Y102027D01*
X39860Y102455D01*
X40506Y102827D01*
X41181Y103142D01*
X41881Y103397D01*
X42601Y103590D01*
X43335Y103719D01*
X44077Y103784D01*
X44823Y103784D01*
X45565Y103719D01*
X46299Y103590D01*
X47019Y103397D01*
X47719Y103142D01*
X48395Y102827D01*
X49040Y102455D01*
X49650Y102027D01*
X50221Y101548D01*
X50748Y101021D01*
X51227Y100450D01*
X51655Y99840D01*
X52027Y99195D01*
X52342Y98519D01*
X52597Y97819D01*
X52790Y97099D01*
X52919Y96365D01*
X52984Y95623D01*
X52984Y94877D01*
X154584Y94877D02*
X154519Y94135D01*
X154390Y93401D01*
X154197Y92681D01*
X153942Y91981D01*
X153627Y91306D01*
X153255Y90660D01*
X152827Y90050D01*
X152348Y89479D01*
X151821Y88952D01*
X151250Y88473D01*
X150640Y88045D01*
X149995Y87673D01*
X149319Y87358D01*
X148619Y87103D01*
X147899Y86910D01*
X147165Y86781D01*
X146423Y86716D01*
X145677Y86716D01*
X144935Y86781D01*
X144201Y86910D01*
X143481Y87103D01*
X142781Y87358D01*
X142106Y87673D01*
X141460Y88045D01*
X140850Y88473D01*
X140279Y88952D01*
X139752Y89479D01*
X139273Y90050D01*
X138845Y90660D01*
X138473Y91306D01*
X138158Y91981D01*
X137903Y92681D01*
X137710Y93401D01*
X137581Y94135D01*
X137516Y94877D01*
X137516Y95623D01*
X137581Y96365D01*
X137710Y97099D01*
X137903Y97819D01*
X138158Y98519D01*
X138473Y99195D01*
X138845Y99840D01*
X139273Y100450D01*
X139752Y101021D01*
X140279Y101548D01*
X140850Y102027D01*
X141460Y102455D01*
X142106Y102827D01*
X142781Y103142D01*
X143481Y103397D01*
X144201Y103590D01*
X144935Y103719D01*
X145677Y103784D01*
X146423Y103784D01*
X147165Y103719D01*
X147899Y103590D01*
X148619Y103397D01*
X149319Y103142D01*
X149995Y102827D01*
X150640Y102455D01*
X151250Y102027D01*
X151821Y101548D01*
X152348Y101021D01*
X152827Y100450D01*
X153255Y99840D01*
X153627Y99195D01*
X153942Y98519D01*
X154197Y97819D01*
X154390Y97099D01*
X154519Y96365D01*
X154584Y95623D01*
X154584Y94877D01*
X318897Y94632D02*
X318822Y93399D01*
X318673Y92172D01*
X318451Y90957D01*
X318155Y89757D01*
X317787Y88577D01*
X317349Y87422D01*
X316842Y86295D01*
X316268Y85201D01*
X315629Y84143D01*
X314927Y83126D01*
X314165Y82154D01*
X313345Y81229D01*
X312471Y80355D01*
X311546Y79536D01*
X310574Y78773D01*
X309557Y78071D01*
X308499Y77432D01*
X307405Y76858D01*
X306278Y76351D01*
X305123Y75913D01*
X303943Y75545D01*
X302743Y75249D01*
X301528Y75027D01*
X300301Y74878D01*
X299068Y74803D01*
X297832Y74803D01*
X296599Y74878D01*
X295372Y75027D01*
X294157Y75249D01*
X292957Y75545D01*
X291777Y75913D01*
X290622Y76351D01*
X289495Y76858D01*
X288401Y77432D01*
X287343Y78071D01*
X286326Y78773D01*
X285354Y79536D01*
X284429Y80355D01*
X283555Y81229D01*
X282736Y82154D01*
X281973Y83126D01*
X281271Y84143D01*
X280632Y85201D01*
X280058Y86295D01*
X279551Y87422D01*
X279113Y88577D01*
X278745Y89757D01*
X278449Y90957D01*
X278227Y92172D01*
X278078Y93399D01*
X278003Y94632D01*
X278003Y95868D01*
X278078Y97101D01*
X278227Y98328D01*
X278449Y99543D01*
X278745Y100743D01*
X279113Y101923D01*
X279551Y103078D01*
X280058Y104205D01*
X280632Y105299D01*
X281271Y106357D01*
X281973Y107374D01*
X282736Y108346D01*
X283555Y109271D01*
X284429Y110145D01*
X285354Y110965D01*
X286326Y111727D01*
X287343Y112429D01*
X288401Y113068D01*
X289495Y113642D01*
X290622Y114149D01*
X291777Y114587D01*
X292957Y114955D01*
X294157Y115251D01*
X295372Y115473D01*
X296599Y115622D01*
X297832Y115697D01*
X299068Y115697D01*
X300301Y115622D01*
X301528Y115473D01*
X302743Y115251D01*
X303943Y114955D01*
X305123Y114587D01*
X306278Y114149D01*
X307405Y113642D01*
X308499Y113068D01*
X309557Y112429D01*
X310574Y111727D01*
X311546Y110965D01*
X312471Y110145D01*
X313345Y109271D01*
X314165Y108346D01*
X314927Y107374D01*
X315629Y106357D01*
X316268Y105299D01*
X316842Y104205D01*
X317349Y103078D01*
X317787Y101923D01*
X318155Y100743D01*
X318451Y99543D01*
X318673Y98328D01*
X318822Y97101D01*
X318897Y95868D01*
X318897Y94632D01*
X256184Y94877D02*
X256119Y94135D01*
X255990Y93401D01*
X255797Y92681D01*
X255542Y91981D01*
X255227Y91306D01*
X254855Y90660D01*
X254427Y90050D01*
X253948Y89479D01*
X253421Y88952D01*
X252850Y88473D01*
X252240Y88045D01*
X251595Y87673D01*
X250919Y87358D01*
X250219Y87103D01*
X249499Y86910D01*
X248765Y86781D01*
X248023Y86716D01*
X247277Y86716D01*
X246535Y86781D01*
X245801Y86910D01*
X245081Y87103D01*
X244381Y87358D01*
X243706Y87673D01*
X243060Y88045D01*
X242450Y88473D01*
X241879Y88952D01*
X241352Y89479D01*
X240873Y90050D01*
X240445Y90660D01*
X240073Y91306D01*
X239758Y91981D01*
X239503Y92681D01*
X239310Y93401D01*
X239181Y94135D01*
X239116Y94877D01*
X239116Y95623D01*
X239181Y96365D01*
X239310Y97099D01*
X239503Y97819D01*
X239758Y98519D01*
X240073Y99195D01*
X240445Y99840D01*
X240873Y100450D01*
X241352Y101021D01*
X241879Y101548D01*
X242450Y102027D01*
X243060Y102455D01*
X243706Y102827D01*
X244381Y103142D01*
X245081Y103397D01*
X245801Y103590D01*
X246535Y103719D01*
X247277Y103784D01*
X248023Y103784D01*
X248765Y103719D01*
X249499Y103590D01*
X250219Y103397D01*
X250919Y103142D01*
X251595Y102827D01*
X252240Y102455D01*
X252850Y102027D01*
X253421Y101548D01*
X253948Y101021D01*
X254427Y100450D01*
X254855Y99840D01*
X255227Y99195D01*
X255542Y98519D01*
X255797Y97819D01*
X255990Y97099D01*
X256119Y96365D01*
X256184Y95623D01*
X256184Y94877D01*
X357784Y94877D02*
X357719Y94135D01*
X357590Y93401D01*
X357397Y92681D01*
X357142Y91981D01*
X356827Y91306D01*
X356455Y90660D01*
X356027Y90050D01*
X355548Y89479D01*
X355021Y88952D01*
X354450Y88473D01*
X353840Y88045D01*
X353195Y87673D01*
X352519Y87358D01*
X351819Y87103D01*
X351099Y86910D01*
X350365Y86781D01*
X349623Y86716D01*
X348877Y86716D01*
X348135Y86781D01*
X347401Y86910D01*
X346681Y87103D01*
X345981Y87358D01*
X345306Y87673D01*
X344660Y88045D01*
X344050Y88473D01*
X343479Y88952D01*
X342952Y89479D01*
X342473Y90050D01*
X342045Y90660D01*
X341673Y91306D01*
X341358Y91981D01*
X341103Y92681D01*
X340910Y93401D01*
X340781Y94135D01*
X340716Y94877D01*
X340716Y95623D01*
X340781Y96365D01*
X340910Y97099D01*
X341103Y97819D01*
X341358Y98519D01*
X341673Y99195D01*
X342045Y99840D01*
X342473Y100450D01*
X342952Y101021D01*
X343479Y101548D01*
X344050Y102027D01*
X344660Y102455D01*
X345306Y102827D01*
X345981Y103142D01*
X346681Y103397D01*
X347401Y103590D01*
X348135Y103719D01*
X348877Y103784D01*
X349623Y103784D01*
X350365Y103719D01*
X351099Y103590D01*
X351819Y103397D01*
X352519Y103142D01*
X353195Y102827D01*
X353840Y102455D01*
X354450Y102027D01*
X355021Y101548D01*
X355548Y101021D01*
X356027Y100450D01*
X356455Y99840D01*
X356827Y99195D01*
X357142Y98519D01*
X357397Y97819D01*
X357590Y97099D01*
X357719Y96365D01*
X357784Y95623D01*
X357784Y94877D01*
X522097Y94632D02*
X522022Y93399D01*
X521873Y92172D01*
X521651Y90957D01*
X521355Y89757D01*
X520987Y88577D01*
X520549Y87422D01*
X520042Y86295D01*
X519468Y85201D01*
X518829Y84143D01*
X518127Y83126D01*
X517365Y82154D01*
X516545Y81229D01*
X515671Y80355D01*
X514746Y79536D01*
X513774Y78773D01*
X512757Y78071D01*
X511699Y77432D01*
X510605Y76858D01*
X509478Y76351D01*
X508323Y75913D01*
X507143Y75545D01*
X505943Y75249D01*
X504728Y75027D01*
X503501Y74878D01*
X502268Y74803D01*
X501032Y74803D01*
X499799Y74878D01*
X498572Y75027D01*
X497357Y75249D01*
X496157Y75545D01*
X494977Y75913D01*
X493822Y76351D01*
X492695Y76858D01*
X491601Y77432D01*
X490543Y78071D01*
X489526Y78773D01*
X488554Y79536D01*
X487629Y80355D01*
X486755Y81229D01*
X485936Y82154D01*
X485173Y83126D01*
X484471Y84143D01*
X483832Y85201D01*
X483258Y86295D01*
X482751Y87422D01*
X482313Y88577D01*
X481945Y89757D01*
X481649Y90957D01*
X481427Y92172D01*
X481278Y93399D01*
X481203Y94632D01*
X481203Y95868D01*
X481278Y97101D01*
X481427Y98328D01*
X481649Y99543D01*
X481945Y100743D01*
X482313Y101923D01*
X482751Y103078D01*
X483258Y104205D01*
X483832Y105299D01*
X484471Y106357D01*
X485173Y107374D01*
X485936Y108346D01*
X486755Y109271D01*
X487629Y110145D01*
X488554Y110965D01*
X489526Y111727D01*
X490543Y112429D01*
X491601Y113068D01*
X492695Y113642D01*
X493822Y114149D01*
X494977Y114587D01*
X496157Y114955D01*
X497357Y115251D01*
X498572Y115473D01*
X499799Y115622D01*
X501032Y115697D01*
X502268Y115697D01*
X503501Y115622D01*
X504728Y115473D01*
X505943Y115251D01*
X507143Y114955D01*
X508323Y114587D01*
X509478Y114149D01*
X510605Y113642D01*
X511699Y113068D01*
X512757Y112429D01*
X513774Y111727D01*
X514746Y110965D01*
X515671Y110145D01*
X516545Y109271D01*
X517365Y108346D01*
X518127Y107374D01*
X518829Y106357D01*
X519468Y105299D01*
X520042Y104205D01*
X520549Y103078D01*
X520987Y101923D01*
X521355Y100743D01*
X521651Y99543D01*
X521873Y98328D01*
X522022Y97101D01*
X522097Y95868D01*
X522097Y94632D01*
X459384Y94877D02*
X459319Y94135D01*
X459190Y93401D01*
X458997Y92681D01*
X458742Y91981D01*
X458427Y91306D01*
X458055Y90660D01*
X457627Y90050D01*
X457148Y89479D01*
X456621Y88952D01*
X456050Y88473D01*
X455440Y88045D01*
X454795Y87673D01*
X454119Y87358D01*
X453419Y87103D01*
X452699Y86910D01*
X451965Y86781D01*
X451223Y86716D01*
X450477Y86716D01*
X449735Y86781D01*
X449001Y86910D01*
X448281Y87103D01*
X447581Y87358D01*
X446906Y87673D01*
X446260Y88045D01*
X445650Y88473D01*
X445079Y88952D01*
X444552Y89479D01*
X444073Y90050D01*
X443645Y90660D01*
X443273Y91306D01*
X442958Y91981D01*
X442703Y92681D01*
X442510Y93401D01*
X442381Y94135D01*
X442316Y94877D01*
X442316Y95623D01*
X442381Y96365D01*
X442510Y97099D01*
X442703Y97819D01*
X442958Y98519D01*
X443273Y99195D01*
X443645Y99840D01*
X444073Y100450D01*
X444552Y101021D01*
X445079Y101548D01*
X445650Y102027D01*
X446260Y102455D01*
X446906Y102827D01*
X447581Y103142D01*
X448281Y103397D01*
X449001Y103590D01*
X449735Y103719D01*
X450477Y103784D01*
X451223Y103784D01*
X451965Y103719D01*
X452699Y103590D01*
X453419Y103397D01*
X454119Y103142D01*
X454795Y102827D01*
X455440Y102455D01*
X456050Y102027D01*
X456621Y101548D01*
X457148Y101021D01*
X457627Y100450D01*
X458055Y99840D01*
X458427Y99195D01*
X458742Y98519D01*
X458997Y97819D01*
X459190Y97099D01*
X459319Y96365D01*
X459384Y95623D01*
X459384Y94877D01*
X560984Y94877D02*
X560919Y94135D01*
X560790Y93401D01*
X560597Y92681D01*
X560342Y91981D01*
X560027Y91306D01*
X559655Y90660D01*
X559227Y90050D01*
X558748Y89479D01*
X558221Y88952D01*
X557650Y88473D01*
X557040Y88045D01*
X556395Y87673D01*
X555719Y87358D01*
X555019Y87103D01*
X554299Y86910D01*
X553565Y86781D01*
X552823Y86716D01*
X552077Y86716D01*
X551335Y86781D01*
X550601Y86910D01*
X549881Y87103D01*
X549181Y87358D01*
X548506Y87673D01*
X547860Y88045D01*
X547250Y88473D01*
X546679Y88952D01*
X546152Y89479D01*
X545673Y90050D01*
X545245Y90660D01*
X544873Y91306D01*
X544558Y91981D01*
X544303Y92681D01*
X544110Y93401D01*
X543981Y94135D01*
X543916Y94877D01*
X543916Y95623D01*
X543981Y96365D01*
X544110Y97099D01*
X544303Y97819D01*
X544558Y98519D01*
X544873Y99195D01*
X545245Y99840D01*
X545673Y100450D01*
X546152Y101021D01*
X546679Y101548D01*
X547250Y102027D01*
X547860Y102455D01*
X548506Y102827D01*
X549181Y103142D01*
X549881Y103397D01*
X550601Y103590D01*
X551335Y103719D01*
X552077Y103784D01*
X552823Y103784D01*
X553565Y103719D01*
X554299Y103590D01*
X555019Y103397D01*
X555719Y103142D01*
X556395Y102827D01*
X557040Y102455D01*
X557650Y102027D01*
X558221Y101548D01*
X558748Y101021D01*
X559227Y100450D01*
X559655Y99840D01*
X560027Y99195D01*
X560342Y98519D01*
X560597Y97819D01*
X560790Y97099D01*
X560919Y96365D01*
X560984Y95623D01*
X560984Y94877D01*
X725297Y94632D02*
X725222Y93399D01*
X725073Y92172D01*
X724851Y90957D01*
X724555Y89757D01*
X724187Y88577D01*
X723749Y87422D01*
X723242Y86295D01*
X722668Y85201D01*
X722029Y84143D01*
X721327Y83126D01*
X720565Y82154D01*
X719745Y81229D01*
X718871Y80355D01*
X717946Y79536D01*
X716974Y78773D01*
X715957Y78071D01*
X714899Y77432D01*
X713805Y76858D01*
X712678Y76351D01*
X711523Y75913D01*
X710343Y75545D01*
X709143Y75249D01*
X707928Y75027D01*
X706701Y74878D01*
X705468Y74803D01*
X704232Y74803D01*
X702999Y74878D01*
X701772Y75027D01*
X700557Y75249D01*
X699357Y75545D01*
X698177Y75913D01*
X697022Y76351D01*
X695895Y76858D01*
X694801Y77432D01*
X693743Y78071D01*
X692726Y78773D01*
X691754Y79536D01*
X690829Y80355D01*
X689955Y81229D01*
X689136Y82154D01*
X688373Y83126D01*
X687671Y84143D01*
X687032Y85201D01*
X686458Y86295D01*
X685951Y87422D01*
X685513Y88577D01*
X685145Y89757D01*
X684849Y90957D01*
X684627Y92172D01*
X684478Y93399D01*
X684403Y94632D01*
X684403Y95868D01*
X684478Y97101D01*
X684627Y98328D01*
X684849Y99543D01*
X685145Y100743D01*
X685513Y101923D01*
X685951Y103078D01*
X686458Y104205D01*
X687032Y105299D01*
X687671Y106357D01*
X688373Y107374D01*
X689136Y108346D01*
X689955Y109271D01*
X690829Y110145D01*
X691754Y110965D01*
X692726Y111727D01*
X693743Y112429D01*
X694801Y113068D01*
X695895Y113642D01*
X697022Y114149D01*
X698177Y114587D01*
X699357Y114955D01*
X700557Y115251D01*
X701772Y115473D01*
X702999Y115622D01*
X704232Y115697D01*
X705468Y115697D01*
X706701Y115622D01*
X707928Y115473D01*
X709143Y115251D01*
X710343Y114955D01*
X711523Y114587D01*
X712678Y114149D01*
X713805Y113642D01*
X714899Y113068D01*
X715957Y112429D01*
X716974Y111727D01*
X717946Y110965D01*
X718871Y110145D01*
X719745Y109271D01*
X720565Y108346D01*
X721327Y107374D01*
X722029Y106357D01*
X722668Y105299D01*
X723242Y104205D01*
X723749Y103078D01*
X724187Y101923D01*
X724555Y100743D01*
X724851Y99543D01*
X725073Y98328D01*
X725222Y97101D01*
X725297Y95868D01*
X725297Y94632D01*
X662584Y94877D02*
X662519Y94135D01*
X662390Y93401D01*
X662197Y92681D01*
X661942Y91981D01*
X661627Y91306D01*
X661255Y90660D01*
X660827Y90050D01*
X660348Y89479D01*
X659821Y88952D01*
X659250Y88473D01*
X658640Y88045D01*
X657995Y87673D01*
X657319Y87358D01*
X656619Y87103D01*
X655899Y86910D01*
X655165Y86781D01*
X654423Y86716D01*
X653677Y86716D01*
X652935Y86781D01*
X652201Y86910D01*
X651481Y87103D01*
X650781Y87358D01*
X650106Y87673D01*
X649460Y88045D01*
X648850Y88473D01*
X648279Y88952D01*
X647752Y89479D01*
X647273Y90050D01*
X646845Y90660D01*
X646473Y91306D01*
X646158Y91981D01*
X645903Y92681D01*
X645710Y93401D01*
X645581Y94135D01*
X645516Y94877D01*
X645516Y95623D01*
X645581Y96365D01*
X645710Y97099D01*
X645903Y97819D01*
X646158Y98519D01*
X646473Y99195D01*
X646845Y99840D01*
X647273Y100450D01*
X647752Y101021D01*
X648279Y101548D01*
X648850Y102027D01*
X649460Y102455D01*
X650106Y102827D01*
X650781Y103142D01*
X651481Y103397D01*
X652201Y103590D01*
X652935Y103719D01*
X653677Y103784D01*
X654423Y103784D01*
X655165Y103719D01*
X655899Y103590D01*
X656619Y103397D01*
X657319Y103142D01*
X657995Y102827D01*
X658640Y102455D01*
X659250Y102027D01*
X659821Y101548D01*
X660348Y101021D01*
X660827Y100450D01*
X661255Y99840D01*
X661627Y99195D01*
X661942Y98519D01*
X662197Y97819D01*
X662390Y97099D01*
X662519Y96365D01*
X662584Y95623D01*
X662584Y94877D01*
X764184Y94877D02*
X764119Y94135D01*
X763990Y93401D01*
X763797Y92681D01*
X763542Y91981D01*
X763227Y91306D01*
X762855Y90660D01*
X762427Y90050D01*
X761948Y89479D01*
X761421Y88952D01*
X760850Y88473D01*
X760240Y88045D01*
X759595Y87673D01*
X758919Y87358D01*
X758219Y87103D01*
X757499Y86910D01*
X756765Y86781D01*
X756023Y86716D01*
X755277Y86716D01*
X754535Y86781D01*
X753801Y86910D01*
X753081Y87103D01*
X752381Y87358D01*
X751706Y87673D01*
X751060Y88045D01*
X750450Y88473D01*
X749879Y88952D01*
X749352Y89479D01*
X748873Y90050D01*
X748445Y90660D01*
X748073Y91306D01*
X747758Y91981D01*
X747503Y92681D01*
X747310Y93401D01*
X747181Y94135D01*
X747116Y94877D01*
X747116Y95623D01*
X747181Y96365D01*
X747310Y97099D01*
X747503Y97819D01*
X747758Y98519D01*
X748073Y99195D01*
X748445Y99840D01*
X748873Y100450D01*
X749352Y101021D01*
X749879Y101548D01*
X750450Y102027D01*
X751060Y102455D01*
X751706Y102827D01*
X752381Y103142D01*
X753081Y103397D01*
X753801Y103590D01*
X754535Y103719D01*
X755277Y103784D01*
X756023Y103784D01*
X756765Y103719D01*
X757499Y103590D01*
X758219Y103397D01*
X758919Y103142D01*
X759595Y102827D01*
X760240Y102455D01*
X760850Y102027D01*
X761421Y101548D01*
X761948Y101021D01*
X762427Y100450D01*
X762855Y99840D01*
X763227Y99195D01*
X763542Y98519D01*
X763797Y97819D01*
X763990Y97099D01*
X764119Y96365D01*
X764184Y95623D01*
X764184Y94877D01*
X115697Y297832D02*
X115622Y296599D01*
X115473Y295372D01*
X115251Y294157D01*
X114955Y292957D01*
X114587Y291777D01*
X114149Y290622D01*
X113642Y289495D01*
X113068Y288401D01*
X112429Y287343D01*
X111727Y286326D01*
X110965Y285354D01*
X110145Y284429D01*
X109271Y283555D01*
X108346Y282736D01*
X107374Y281973D01*
X106357Y281271D01*
X105299Y280632D01*
X104205Y280058D01*
X103078Y279551D01*
X101923Y279113D01*
X100743Y278745D01*
X99543Y278449D01*
X98328Y278227D01*
X97101Y278078D01*
X95868Y278003D01*
X94632Y278003D01*
X93399Y278078D01*
X92172Y278227D01*
X90957Y278449D01*
X89757Y278745D01*
X88577Y279113D01*
X87422Y279551D01*
X86295Y280058D01*
X85201Y280632D01*
X84143Y281271D01*
X83126Y281973D01*
X82154Y282736D01*
X81229Y283555D01*
X80355Y284429D01*
X79536Y285354D01*
X78773Y286326D01*
X78071Y287343D01*
X77432Y288401D01*
X76858Y289495D01*
X76351Y290622D01*
X75913Y291777D01*
X75545Y292957D01*
X75249Y294157D01*
X75027Y295372D01*
X74878Y296599D01*
X74803Y297832D01*
X74803Y299068D01*
X74878Y300301D01*
X75027Y301528D01*
X75249Y302743D01*
X75545Y303943D01*
X75913Y305123D01*
X76351Y306278D01*
X76858Y307405D01*
X77432Y308499D01*
X78071Y309557D01*
X78773Y310574D01*
X79536Y311546D01*
X80355Y312471D01*
X81229Y313345D01*
X82154Y314165D01*
X83126Y314927D01*
X84143Y315629D01*
X85201Y316268D01*
X86295Y316842D01*
X87422Y317349D01*
X88577Y317787D01*
X89757Y318155D01*
X90957Y318451D01*
X92172Y318673D01*
X93399Y318822D01*
X94632Y318897D01*
X95868Y318897D01*
X97101Y318822D01*
X98328Y318673D01*
X99543Y318451D01*
X100743Y318155D01*
X101923Y317787D01*
X103078Y317349D01*
X104205Y316842D01*
X105299Y316268D01*
X106357Y315629D01*
X107374Y314927D01*
X108346Y314165D01*
X109271Y313345D01*
X110145Y312471D01*
X110965Y311546D01*
X111727Y310574D01*
X112429Y309557D01*
X113068Y308499D01*
X113642Y307405D01*
X114149Y306278D01*
X114587Y305123D01*
X114955Y303943D01*
X115251Y302743D01*
X115473Y301528D01*
X115622Y300301D01*
X115697Y299068D01*
X115697Y297832D01*
X52984Y298077D02*
X52919Y297335D01*
X52790Y296601D01*
X52597Y295881D01*
X52342Y295181D01*
X52027Y294506D01*
X51655Y293860D01*
X51227Y293250D01*
X50748Y292679D01*
X50221Y292152D01*
X49650Y291673D01*
X49040Y291245D01*
X48395Y290873D01*
X47719Y290558D01*
X47019Y290303D01*
X46299Y290110D01*
X45565Y289981D01*
X44823Y289916D01*
X44077Y289916D01*
X43335Y289981D01*
X42601Y290110D01*
X41881Y290303D01*
X41181Y290558D01*
X40506Y290873D01*
X39860Y291245D01*
X39250Y291673D01*
X38679Y292152D01*
X38152Y292679D01*
X37673Y293250D01*
X37245Y293860D01*
X36873Y294506D01*
X36558Y295181D01*
X36303Y295881D01*
X36110Y296601D01*
X35981Y297335D01*
X35916Y298077D01*
X35916Y298823D01*
X35981Y299565D01*
X36110Y300299D01*
X36303Y301019D01*
X36558Y301719D01*
X36873Y302395D01*
X37245Y303040D01*
X37673Y303650D01*
X38152Y304221D01*
X38679Y304748D01*
X39250Y305227D01*
X39860Y305655D01*
X40506Y306027D01*
X41181Y306342D01*
X41881Y306597D01*
X42601Y306790D01*
X43335Y306919D01*
X44077Y306984D01*
X44823Y306984D01*
X45565Y306919D01*
X46299Y306790D01*
X47019Y306597D01*
X47719Y306342D01*
X48395Y306027D01*
X49040Y305655D01*
X49650Y305227D01*
X50221Y304748D01*
X50748Y304221D01*
X51227Y303650D01*
X51655Y303040D01*
X52027Y302395D01*
X52342Y301719D01*
X52597Y301019D01*
X52790Y300299D01*
X52919Y299565D01*
X52984Y298823D01*
X52984Y298077D01*
X154584Y298077D02*
X154519Y297335D01*
X154390Y296601D01*
X154197Y295881D01*
X153942Y295181D01*
X153627Y294506D01*
X153255Y293860D01*
X152827Y293250D01*
X152348Y292679D01*
X151821Y292152D01*
X151250Y291673D01*
X150640Y291245D01*
X149995Y290873D01*
X149319Y290558D01*
X148619Y290303D01*
X147899Y290110D01*
X147165Y289981D01*
X146423Y289916D01*
X145677Y289916D01*
X144935Y289981D01*
X144201Y290110D01*
X143481Y290303D01*
X142781Y290558D01*
X142106Y290873D01*
X141460Y291245D01*
X140850Y291673D01*
X140279Y292152D01*
X139752Y292679D01*
X139273Y293250D01*
X138845Y293860D01*
X138473Y294506D01*
X138158Y295181D01*
X137903Y295881D01*
X137710Y296601D01*
X137581Y297335D01*
X137516Y298077D01*
X137516Y298823D01*
X137581Y299565D01*
X137710Y300299D01*
X137903Y301019D01*
X138158Y301719D01*
X138473Y302395D01*
X138845Y303040D01*
X139273Y303650D01*
X139752Y304221D01*
X140279Y304748D01*
X140850Y305227D01*
X141460Y305655D01*
X142106Y306027D01*
X142781Y306342D01*
X143481Y306597D01*
X144201Y306790D01*
X144935Y306919D01*
X145677Y306984D01*
X146423Y306984D01*
X147165Y306919D01*
X147899Y306790D01*
X148619Y306597D01*
X149319Y306342D01*
X149995Y306027D01*
X150640Y305655D01*
X151250Y305227D01*
X151821Y304748D01*
X152348Y304221D01*
X152827Y303650D01*
X153255Y303040D01*
X153627Y302395D01*
X153942Y301719D01*
X154197Y301019D01*
X154390Y300299D01*
X154519Y299565D01*
X154584Y298823D01*
X154584Y298077D01*
X318897Y297832D02*
X318822Y296599D01*
X318673Y295372D01*
X318451Y294157D01*
X318155Y292957D01*
X317787Y291777D01*
X317349Y290622D01*
X316842Y289495D01*
X316268Y288401D01*
X315629Y287343D01*
X314927Y286326D01*
X314165Y285354D01*
X313345Y284429D01*
X312471Y283555D01*
X311546Y282736D01*
X310574Y281973D01*
X309557Y281271D01*
X308499Y280632D01*
X307405Y280058D01*
X306278Y279551D01*
X305123Y279113D01*
X303943Y278745D01*
X302743Y278449D01*
X301528Y278227D01*
X300301Y278078D01*
X299068Y278003D01*
X297832Y278003D01*
X296599Y278078D01*
X295372Y278227D01*
X294157Y278449D01*
X292957Y278745D01*
X291777Y279113D01*
X290622Y279551D01*
X289495Y280058D01*
X288401Y280632D01*
X287343Y281271D01*
X286326Y281973D01*
X285354Y282736D01*
X284429Y283555D01*
X283555Y284429D01*
X282736Y285354D01*
X281973Y286326D01*
X281271Y287343D01*
X280632Y288401D01*
X280058Y289495D01*
X279551Y290622D01*
X279113Y291777D01*
X278745Y292957D01*
X278449Y294157D01*
X278227Y295372D01*
X278078Y296599D01*
X278003Y297832D01*
X278003Y299068D01*
X278078Y300301D01*
X278227Y301528D01*
X278449Y302743D01*
X278745Y303943D01*
X279113Y305123D01*
X279551Y306278D01*
X280058Y307405D01*
X280632Y308499D01*
X281271Y309557D01*
X281973Y310574D01*
X282736Y311546D01*
X283555Y312471D01*
X284429Y313345D01*
X285354Y314165D01*
X286326Y314927D01*
X287343Y315629D01*
X288401Y316268D01*
X289495Y316842D01*
X290622Y317349D01*
X291777Y317787D01*
X292957Y318155D01*
X294157Y318451D01*
X295372Y318673D01*
X296599Y318822D01*
X297832Y318897D01*
X299068Y318897D01*
X300301Y318822D01*
X301528Y318673D01*
X302743Y318451D01*
X303943Y318155D01*
X305123Y317787D01*
X306278Y317349D01*
X307405Y316842D01*
X308499Y316268D01*
X309557Y315629D01*
X310574Y314927D01*
X311546Y314165D01*
X312471Y313345D01*
X313345Y312471D01*
X314165Y311546D01*
X314927Y310574D01*
X315629Y309557D01*
X316268Y308499D01*
X316842Y307405D01*
X317349Y306278D01*
X317787Y305123D01*
X318155Y303943D01*
X318451Y302743D01*
X318673Y301528D01*
X318822Y300301D01*
X318897Y299068D01*
X318897Y297832D01*
X256184Y298077D02*
X256119Y297335D01*
X255990Y296601D01*
X255797Y295881D01*
X255542Y295181D01*
X255227Y294506D01*
X254855Y293860D01*
X254427Y293250D01*
X253948Y292679D01*
X253421Y292152D01*
X252850Y291673D01*
X252240Y291245D01*
X251595Y290873D01*
X250919Y290558D01*
X250219Y290303D01*
X249499Y290110D01*
X248765Y289981D01*
X248023Y289916D01*
X247277Y289916D01*
X246535Y289981D01*
X245801Y290110D01*
X245081Y290303D01*
X244381Y290558D01*
X243706Y290873D01*
X243060Y291245D01*
X242450Y291673D01*
X241879Y292152D01*
X241352Y292679D01*
X240873Y293250D01*
X240445Y293860D01*
X240073Y294506D01*
X239758Y295181D01*
X239503Y295881D01*
X239310Y296601D01*
X239181Y297335D01*
X239116Y298077D01*
X239116Y298823D01*
X239181Y299565D01*
X239310Y300299D01*
X239503Y301019D01*
X239758Y301719D01*
X240073Y302395D01*
X240445Y303040D01*
X240873Y303650D01*
X241352Y304221D01*
X241879Y304748D01*
X242450Y305227D01*
X243060Y305655D01*
X243706Y306027D01*
X244381Y306342D01*
X245081Y306597D01*
X245801Y306790D01*
X246535Y306919D01*
X247277Y306984D01*
X248023Y306984D01*
X248765Y306919D01*
X249499Y306790D01*
X250219Y306597D01*
X250919Y306342D01*
X251595Y306027D01*
X252240Y305655D01*
X252850Y305227D01*
X253421Y304748D01*
X253948Y304221D01*
X254427Y303650D01*
X254855Y303040D01*
X255227Y302395D01*
X255542Y301719D01*
X255797Y301019D01*
X255990Y300299D01*
X256119Y299565D01*
X256184Y298823D01*
X256184Y298077D01*
X357784Y298077D02*
X357719Y297335D01*
X357590Y296601D01*
X357397Y295881D01*
X357142Y295181D01*
X356827Y294506D01*
X356455Y293860D01*
X356027Y293250D01*
X355548Y292679D01*
X355021Y292152D01*
X354450Y291673D01*
X353840Y291245D01*
X353195Y290873D01*
X352519Y290558D01*
X351819Y290303D01*
X351099Y290110D01*
X350365Y289981D01*
X349623Y289916D01*
X348877Y289916D01*
X348135Y289981D01*
X347401Y290110D01*
X346681Y290303D01*
X345981Y290558D01*
X345306Y290873D01*
X344660Y291245D01*
X344050Y291673D01*
X343479Y292152D01*
X342952Y292679D01*
X342473Y293250D01*
X342045Y293860D01*
X341673Y294506D01*
X341358Y295181D01*
X341103Y295881D01*
X340910Y296601D01*
X340781Y297335D01*
X340716Y298077D01*
X340716Y298823D01*
X340781Y299565D01*
X340910Y300299D01*
X341103Y301019D01*
X341358Y301719D01*
X341673Y302395D01*
X342045Y303040D01*
X342473Y303650D01*
X342952Y304221D01*
X343479Y304748D01*
X344050Y305227D01*
X344660Y305655D01*
X345306Y306027D01*
X345981Y306342D01*
X346681Y306597D01*
X347401Y306790D01*
X348135Y306919D01*
X348877Y306984D01*
X349623Y306984D01*
X350365Y306919D01*
X351099Y306790D01*
X351819Y306597D01*
X352519Y306342D01*
X353195Y306027D01*
X353840Y305655D01*
X354450Y305227D01*
X355021Y304748D01*
X355548Y304221D01*
X356027Y303650D01*
X356455Y303040D01*
X356827Y302395D01*
X357142Y301719D01*
X357397Y301019D01*
X357590Y300299D01*
X357719Y299565D01*
X357784Y298823D01*
X357784Y298077D01*
X522097Y297832D02*
X522022Y296599D01*
X521873Y295372D01*
X521651Y294157D01*
X521355Y292957D01*
X520987Y291777D01*
X520549Y290622D01*
X520042Y289495D01*
X519468Y288401D01*
X518829Y287343D01*
X518127Y286326D01*
X517365Y285354D01*
X516545Y284429D01*
X515671Y283555D01*
X514746Y282736D01*
X513774Y281973D01*
X512757Y281271D01*
X511699Y280632D01*
X510605Y280058D01*
X509478Y279551D01*
X508323Y279113D01*
X507143Y278745D01*
X505943Y278449D01*
X504728Y278227D01*
X503501Y278078D01*
X502268Y278003D01*
X501032Y278003D01*
X499799Y278078D01*
X498572Y278227D01*
X497357Y278449D01*
X496157Y278745D01*
X494977Y279113D01*
X493822Y279551D01*
X492695Y280058D01*
X491601Y280632D01*
X490543Y281271D01*
X489526Y281973D01*
X488554Y282736D01*
X487629Y283555D01*
X486755Y284429D01*
X485936Y285354D01*
X485173Y286326D01*
X484471Y287343D01*
X483832Y288401D01*
X483258Y289495D01*
X482751Y290622D01*
X482313Y291777D01*
X481945Y292957D01*
X481649Y294157D01*
X481427Y295372D01*
X481278Y296599D01*
X481203Y297832D01*
X481203Y299068D01*
X481278Y300301D01*
X481427Y301528D01*
X481649Y302743D01*
X481945Y303943D01*
X482313Y305123D01*
X482751Y306278D01*
X483258Y307405D01*
X483832Y308499D01*
X484471Y309557D01*
X485173Y310574D01*
X485936Y311546D01*
X486755Y312471D01*
X487629Y313345D01*
X488554Y314165D01*
X489526Y314927D01*
X490543Y315629D01*
X491601Y316268D01*
X492695Y316842D01*
X493822Y317349D01*
X494977Y317787D01*
X496157Y318155D01*
X497357Y318451D01*
X498572Y318673D01*
X499799Y318822D01*
X501032Y318897D01*
X502268Y318897D01*
X503501Y318822D01*
X504728Y318673D01*
X505943Y318451D01*
X507143Y318155D01*
X508323Y317787D01*
X509478Y317349D01*
X510605Y316842D01*
X511699Y316268D01*
X512757Y315629D01*
X513774Y314927D01*
X514746Y314165D01*
X515671Y313345D01*
X516545Y312471D01*
X517365Y311546D01*
X518127Y310574D01*
X518829Y309557D01*
X519468Y308499D01*
X520042Y307405D01*
X520549Y306278D01*
X520987Y305123D01*
X521355Y303943D01*
X521651Y302743D01*
X521873Y301528D01*
X522022Y300301D01*
X522097Y299068D01*
X522097Y297832D01*
X459384Y298077D02*
X459319Y297335D01*
X459190Y296601D01*
X458997Y295881D01*
X458742Y295181D01*
X458427Y294506D01*
X458055Y293860D01*
X457627Y293250D01*
X457148Y292679D01*
X456621Y292152D01*
X456050Y291673D01*
X455440Y291245D01*
X454795Y290873D01*
X454119Y290558D01*
X453419Y290303D01*
X452699Y290110D01*
X451965Y289981D01*
X451223Y289916D01*
X450477Y289916D01*
X449735Y289981D01*
X449001Y290110D01*
X448281Y290303D01*
X447581Y290558D01*
X446906Y290873D01*
X446260Y291245D01*
X445650Y291673D01*
X445079Y292152D01*
X444552Y292679D01*
X444073Y293250D01*
X443645Y293860D01*
X443273Y294506D01*
X442958Y295181D01*
X442703Y295881D01*
X442510Y296601D01*
X442381Y297335D01*
X442316Y298077D01*
X442316Y298823D01*
X442381Y299565D01*
X442510Y300299D01*
X442703Y301019D01*
X442958Y301719D01*
X443273Y302395D01*
X443645Y303040D01*
X444073Y303650D01*
X444552Y304221D01*
X445079Y304748D01*
X445650Y305227D01*
X446260Y305655D01*
X446906Y306027D01*
X447581Y306342D01*
X448281Y306597D01*
X449001Y306790D01*
X449735Y306919D01*
X450477Y306984D01*
X451223Y306984D01*
X451965Y306919D01*
X452699Y306790D01*
X453419Y306597D01*
X454119Y306342D01*
X454795Y306027D01*
X455440Y305655D01*
X456050Y305227D01*
X456621Y304748D01*
X457148Y304221D01*
X457627Y303650D01*
X458055Y303040D01*
X458427Y302395D01*
X458742Y301719D01*
X458997Y301019D01*
X459190Y300299D01*
X459319Y299565D01*
X459384Y298823D01*
X459384Y298077D01*
X560984Y298077D02*
X560919Y297335D01*
X560790Y296601D01*
X560597Y295881D01*
X560342Y295181D01*
X560027Y294506D01*
X559655Y293860D01*
X559227Y293250D01*
X558748Y292679D01*
X558221Y292152D01*
X557650Y291673D01*
X557040Y291245D01*
X556395Y290873D01*
X555719Y290558D01*
X555019Y290303D01*
X554299Y290110D01*
X553565Y289981D01*
X552823Y289916D01*
X552077Y289916D01*
X551335Y289981D01*
X550601Y290110D01*
X549881Y290303D01*
X549181Y290558D01*
X548506Y290873D01*
X547860Y291245D01*
X547250Y291673D01*
X546679Y292152D01*
X546152Y292679D01*
X545673Y293250D01*
X545245Y293860D01*
X544873Y294506D01*
X544558Y295181D01*
X544303Y295881D01*
X544110Y296601D01*
X543981Y297335D01*
X543916Y298077D01*
X543916Y298823D01*
X543981Y299565D01*
X544110Y300299D01*
X544303Y301019D01*
X544558Y301719D01*
X544873Y302395D01*
X545245Y303040D01*
X545673Y303650D01*
X546152Y304221D01*
X546679Y304748D01*
X547250Y305227D01*
X547860Y305655D01*
X548506Y306027D01*
X549181Y306342D01*
X549881Y306597D01*
X550601Y306790D01*
X551335Y306919D01*
X552077Y306984D01*
X552823Y306984D01*
X553565Y306919D01*
X554299Y306790D01*
X555019Y306597D01*
X555719Y306342D01*
X556395Y306027D01*
X557040Y305655D01*
X557650Y305227D01*
X558221Y304748D01*
X558748Y304221D01*
X559227Y303650D01*
X559655Y303040D01*
X560027Y302395D01*
X560342Y301719D01*
X560597Y301019D01*
X560790Y300299D01*
X560919Y299565D01*
X560984Y298823D01*
X560984Y298077D01*
X725297Y297832D02*
X725222Y296599D01*
X725073Y295372D01*
X724851Y294157D01*
X724555Y292957D01*
X724187Y291777D01*
X723749Y290622D01*
X723242Y289495D01*
X722668Y288401D01*
X722029Y287343D01*
X721327Y286326D01*
X720565Y285354D01*
X719745Y284429D01*
X718871Y283555D01*
X717946Y282736D01*
X716974Y281973D01*
X715957Y281271D01*
X714899Y280632D01*
X713805Y280058D01*
X712678Y279551D01*
X711523Y279113D01*
X710343Y278745D01*
X709143Y278449D01*
X707928Y278227D01*
X706701Y278078D01*
X705468Y278003D01*
X704232Y278003D01*
X702999Y278078D01*
X701772Y278227D01*
X700557Y278449D01*
X699357Y278745D01*
X698177Y279113D01*
X697022Y279551D01*
X695895Y280058D01*
X694801Y280632D01*
X693743Y281271D01*
X692726Y281973D01*
X691754Y282736D01*
X690829Y283555D01*
X689955Y284429D01*
X689136Y285354D01*
X688373Y286326D01*
X687671Y287343D01*
X687032Y288401D01*
X686458Y289495D01*
X685951Y290622D01*
X685513Y291777D01*
X685145Y292957D01*
X684849Y294157D01*
X684627Y295372D01*
X684478Y296599D01*
X684403Y297832D01*
X684403Y299068D01*
X684478Y300301D01*
X684627Y301528D01*
X684849Y302743D01*
X685145Y303943D01*
X685513Y305123D01*
X685951Y306278D01*
X686458Y307405D01*
X687032Y308499D01*
X687671Y309557D01*
X688373Y310574D01*
X689136Y311546D01*
X689955Y312471D01*
X690829Y313345D01*
X691754Y314165D01*
X692726Y314927D01*
X693743Y315629D01*
X694801Y316268D01*
X695895Y316842D01*
X697022Y317349D01*
X698177Y317787D01*
X699357Y318155D01*
X700557Y318451D01*
X701772Y318673D01*
X702999Y318822D01*
X704232Y318897D01*
X705468Y318897D01*
X706701Y318822D01*
X707928Y318673D01*
X709143Y318451D01*
X710343Y318155D01*
X711523Y317787D01*
X712678Y317349D01*
X713805Y316842D01*
X714899Y316268D01*
X715957Y315629D01*
X716974Y314927D01*
X717946Y314165D01*
X718871Y313345D01*
X719745Y312471D01*
X720565Y311546D01*
X721327Y310574D01*
X722029Y309557D01*
X722668Y308499D01*
X723242Y307405D01*
X723749Y306278D01*
X724187Y305123D01*
X724555Y303943D01*
X724851Y302743D01*
X725073Y301528D01*
X725222Y300301D01*
X725297Y299068D01*
X725297Y297832D01*
X662584Y298077D02*
X662519Y297335D01*
X662390Y296601D01*
X662197Y295881D01*
X661942Y295181D01*
X661627Y294506D01*
X661255Y293860D01*
X660827Y293250D01*
X660348Y292679D01*
X659821Y292152D01*
X659250Y291673D01*
X658640Y291245D01*
X657995Y290873D01*
X657319Y290558D01*
X656619Y290303D01*
X655899Y290110D01*
X655165Y289981D01*
X654423Y289916D01*
X653677Y289916D01*
X652935Y289981D01*
X652201Y290110D01*
X651481Y290303D01*
X650781Y290558D01*
X650106Y290873D01*
X649460Y291245D01*
X648850Y291673D01*
X648279Y292152D01*
X647752Y292679D01*
X647273Y293250D01*
X646845Y293860D01*
X646473Y294506D01*
X646158Y295181D01*
X645903Y295881D01*
X645710Y296601D01*
X645581Y297335D01*
X645516Y298077D01*
X645516Y298823D01*
X645581Y299565D01*
X645710Y300299D01*
X645903Y301019D01*
X646158Y301719D01*
X646473Y302395D01*
X646845Y303040D01*
X647273Y303650D01*
X647752Y304221D01*
X648279Y304748D01*
X648850Y305227D01*
X649460Y305655D01*
X650106Y306027D01*
X650781Y306342D01*
X651481Y306597D01*
X652201Y306790D01*
X652935Y306919D01*
X653677Y306984D01*
X654423Y306984D01*
X655165Y306919D01*
X655899Y306790D01*
X656619Y306597D01*
X657319Y306342D01*
X657995Y306027D01*
X658640Y305655D01*
X659250Y305227D01*
X659821Y304748D01*
X660348Y304221D01*
X660827Y303650D01*
X661255Y303040D01*
X661627Y302395D01*
X661942Y301719D01*
X662197Y301019D01*
X662390Y300299D01*
X662519Y299565D01*
X662584Y298823D01*
X662584Y298077D01*
X764184Y298077D02*
X764119Y297335D01*
X763990Y296601D01*
X763797Y295881D01*
X763542Y295181D01*
X763227Y294506D01*
X762855Y293860D01*
X762427Y293250D01*
X761948Y292679D01*
X761421Y292152D01*
X760850Y291673D01*
X760240Y291245D01*
X759595Y290873D01*
X758919Y290558D01*
X758219Y290303D01*
X757499Y290110D01*
X756765Y289981D01*
X756023Y289916D01*
X755277Y289916D01*
X754535Y289981D01*
X753801Y290110D01*
X753081Y290303D01*
X752381Y290558D01*
X751706Y290873D01*
X751060Y291245D01*
X750450Y291673D01*
X749879Y292152D01*
X749352Y292679D01*
X748873Y293250D01*
X748445Y293860D01*
X748073Y294506D01*
X747758Y295181D01*
X747503Y295881D01*
X747310Y296601D01*
X747181Y297335D01*
X747116Y298077D01*
X747116Y298823D01*
X747181Y299565D01*
X747310Y300299D01*
X747503Y301019D01*
X747758Y301719D01*
X748073Y302395D01*
X748445Y303040D01*
X748873Y303650D01*
X749352Y304221D01*
X749879Y304748D01*
X750450Y305227D01*
X751060Y305655D01*
X751706Y306027D01*
X752381Y306342D01*
X753081Y306597D01*
X753801Y306790D01*
X754535Y306919D01*
X755277Y306984D01*
X756023Y306984D01*
X756765Y306919D01*
X757499Y306790D01*
X758219Y306597D01*
X758919Y306342D01*
X759595Y306027D01*
X760240Y305655D01*
X760850Y305227D01*
X761421Y304748D01*
X761948Y304221D01*
X762427Y303650D01*
X762855Y303040D01*
X763227Y302395D01*
X763542Y301719D01*
X763797Y301019D01*
X763990Y300299D01*
X764119Y299565D01*
X764184Y298823D01*
X764184Y298077D01*
M02*
