G04 EAGLE Gerber RS-274X export*
G75*
%MOMM*%
%FSLAX34Y34*%
%LPD*%
%INSilkscreen Bottom*%
%IPPOS*%
%AMOC8*
5,1,8,0,0,1.08239X$1,22.5*%
G01*
%ADD10C,0.203200*%
%ADD11C,0.279400*%
%ADD12C,0.228600*%
%ADD13C,0.152400*%
%ADD14C,0.254000*%


D10*
X30230Y128016D02*
X37348Y128016D01*
X30230Y135134D01*
X30230Y136914D01*
X32009Y138693D01*
X35568Y138693D01*
X37348Y136914D01*
X33789Y113293D02*
X37348Y109734D01*
X33789Y113293D02*
X33789Y102616D01*
X37348Y102616D02*
X30230Y102616D01*
D11*
X31645Y82556D02*
X41645Y82556D01*
X41645Y57156D02*
X31645Y57156D01*
X36645Y52157D02*
X36645Y62156D01*
D10*
X60327Y34553D02*
X63886Y30994D01*
X60327Y34553D02*
X60327Y23876D01*
X63886Y23876D02*
X56768Y23876D01*
D12*
X81685Y27946D02*
X90328Y27946D01*
X86007Y32267D02*
X86007Y23624D01*
D10*
X107952Y34553D02*
X111511Y30994D01*
X107952Y34553D02*
X107952Y23876D01*
X111511Y23876D02*
X104393Y23876D01*
D12*
X129310Y27946D02*
X137953Y27946D01*
X133632Y32267D02*
X133632Y23624D01*
D10*
X16261Y162439D02*
X12702Y165998D01*
X12702Y155321D01*
X16261Y155321D02*
X9143Y155321D01*
D12*
X34060Y160661D02*
X42703Y160661D01*
X38382Y164982D02*
X38382Y156339D01*
D10*
X60327Y165998D02*
X63886Y162439D01*
X60327Y165998D02*
X60327Y155321D01*
X63886Y155321D02*
X56768Y155321D01*
D12*
X81685Y160661D02*
X90328Y160661D01*
X86007Y164982D02*
X86007Y156339D01*
D13*
X155046Y48775D02*
X155046Y40132D01*
X155046Y48775D02*
X150724Y48775D01*
X149283Y47335D01*
X149283Y44454D01*
X150724Y43013D01*
X155046Y43013D01*
X152164Y43013D02*
X149283Y40132D01*
X148696Y141732D02*
X148696Y150375D01*
X148696Y141732D02*
X144374Y141732D01*
X142933Y143173D01*
X142933Y148935D01*
X144374Y150375D01*
X148696Y150375D01*
D14*
X152400Y173990D02*
X152400Y181610D01*
D12*
X70612Y44456D02*
X61969Y44456D01*
X66290Y48777D02*
X66290Y40134D01*
X107751Y31756D02*
X116395Y31756D01*
D10*
X233430Y128016D02*
X240548Y128016D01*
X233430Y135134D01*
X233430Y136914D01*
X235209Y138693D01*
X238768Y138693D01*
X240548Y136914D01*
X236989Y113293D02*
X240548Y109734D01*
X236989Y113293D02*
X236989Y102616D01*
X240548Y102616D02*
X233430Y102616D01*
D11*
X234845Y82556D02*
X244845Y82556D01*
X244845Y57156D02*
X234845Y57156D01*
X239845Y52157D02*
X239845Y62156D01*
D10*
X355721Y128016D02*
X362839Y128016D01*
X355721Y135134D01*
X355721Y136914D01*
X357500Y138693D01*
X361060Y138693D01*
X362839Y136914D01*
X359280Y113293D02*
X362839Y109734D01*
X359280Y113293D02*
X359280Y102616D01*
X362839Y102616D02*
X355721Y102616D01*
D11*
X352459Y82556D02*
X362458Y82556D01*
X362458Y57156D02*
X352459Y57156D01*
X357458Y52157D02*
X357458Y62156D01*
D10*
X267086Y30994D02*
X263527Y34553D01*
X263527Y23876D01*
X267086Y23876D02*
X259968Y23876D01*
D12*
X284885Y27946D02*
X293528Y27946D01*
X289207Y32267D02*
X289207Y23624D01*
D10*
X311152Y34553D02*
X314711Y30994D01*
X311152Y34553D02*
X311152Y23876D01*
X314711Y23876D02*
X307593Y23876D01*
D12*
X332510Y27946D02*
X341153Y27946D01*
X336832Y32267D02*
X336832Y23624D01*
D10*
X219461Y162439D02*
X215902Y165998D01*
X215902Y155321D01*
X219461Y155321D02*
X212343Y155321D01*
D12*
X237260Y160661D02*
X245903Y160661D01*
X241582Y164982D02*
X241582Y156339D01*
D10*
X263527Y165998D02*
X267086Y162439D01*
X263527Y165998D02*
X263527Y155321D01*
X267086Y155321D02*
X259968Y155321D01*
D12*
X284885Y160661D02*
X293528Y160661D01*
X289207Y164982D02*
X289207Y156339D01*
D13*
X358246Y48775D02*
X358246Y40132D01*
X358246Y48775D02*
X353924Y48775D01*
X352483Y47335D01*
X352483Y44454D01*
X353924Y43013D01*
X358246Y43013D01*
X355364Y43013D02*
X352483Y40132D01*
X351896Y141732D02*
X351896Y150375D01*
X351896Y141732D02*
X347574Y141732D01*
X346133Y143173D01*
X346133Y148935D01*
X347574Y150375D01*
X351896Y150375D01*
D14*
X355600Y173990D02*
X355600Y181610D01*
D12*
X273812Y44456D02*
X265169Y44456D01*
X269490Y48777D02*
X269490Y40134D01*
D10*
X436630Y128016D02*
X443748Y128016D01*
X436630Y135134D01*
X436630Y136914D01*
X438409Y138693D01*
X441968Y138693D01*
X443748Y136914D01*
X440189Y113293D02*
X443748Y109734D01*
X440189Y113293D02*
X440189Y102616D01*
X443748Y102616D02*
X436630Y102616D01*
D11*
X438045Y82556D02*
X448045Y82556D01*
X448045Y57156D02*
X438045Y57156D01*
X443045Y52157D02*
X443045Y62156D01*
D10*
X466727Y34553D02*
X470286Y30994D01*
X466727Y34553D02*
X466727Y23876D01*
X470286Y23876D02*
X463168Y23876D01*
D12*
X488085Y27946D02*
X496728Y27946D01*
X492407Y32267D02*
X492407Y23624D01*
D10*
X514352Y34553D02*
X517911Y30994D01*
X514352Y34553D02*
X514352Y23876D01*
X517911Y23876D02*
X510793Y23876D01*
D12*
X535710Y27946D02*
X544353Y27946D01*
X540032Y32267D02*
X540032Y23624D01*
D10*
X422661Y162439D02*
X419102Y165998D01*
X419102Y155321D01*
X422661Y155321D02*
X415543Y155321D01*
D12*
X440460Y160661D02*
X449103Y160661D01*
X444782Y164982D02*
X444782Y156339D01*
D10*
X466727Y165998D02*
X470286Y162439D01*
X466727Y165998D02*
X466727Y155321D01*
X470286Y155321D02*
X463168Y155321D01*
D12*
X488085Y160661D02*
X496728Y160661D01*
X492407Y164982D02*
X492407Y156339D01*
D13*
X561446Y48775D02*
X561446Y40132D01*
X561446Y48775D02*
X557124Y48775D01*
X555683Y47335D01*
X555683Y44454D01*
X557124Y43013D01*
X561446Y43013D01*
X558564Y43013D02*
X555683Y40132D01*
X555096Y141732D02*
X555096Y150375D01*
X555096Y141732D02*
X550774Y141732D01*
X549333Y143173D01*
X549333Y148935D01*
X550774Y150375D01*
X555096Y150375D01*
D14*
X558800Y173990D02*
X558800Y181610D01*
D12*
X477012Y44456D02*
X468369Y44456D01*
X472690Y48777D02*
X472690Y40134D01*
X526851Y44456D02*
X535495Y44456D01*
D10*
X639830Y128016D02*
X646948Y128016D01*
X639830Y135134D01*
X639830Y136914D01*
X641609Y138693D01*
X645168Y138693D01*
X646948Y136914D01*
X643389Y113293D02*
X646948Y109734D01*
X643389Y113293D02*
X643389Y102616D01*
X646948Y102616D02*
X639830Y102616D01*
D11*
X641245Y82556D02*
X651245Y82556D01*
X651245Y57156D02*
X641245Y57156D01*
X646245Y52157D02*
X646245Y62156D01*
D10*
X762121Y128016D02*
X769239Y128016D01*
X762121Y135134D01*
X762121Y136914D01*
X763900Y138693D01*
X767460Y138693D01*
X769239Y136914D01*
X765680Y113293D02*
X769239Y109734D01*
X765680Y113293D02*
X765680Y102616D01*
X769239Y102616D02*
X762121Y102616D01*
D11*
X758859Y82556D02*
X768858Y82556D01*
X768858Y57156D02*
X758859Y57156D01*
X763858Y52157D02*
X763858Y62156D01*
D10*
X673486Y30994D02*
X669927Y34553D01*
X669927Y23876D01*
X673486Y23876D02*
X666368Y23876D01*
D12*
X691285Y27946D02*
X699928Y27946D01*
X695607Y32267D02*
X695607Y23624D01*
D10*
X717552Y34553D02*
X721111Y30994D01*
X717552Y34553D02*
X717552Y23876D01*
X721111Y23876D02*
X713993Y23876D01*
D12*
X738910Y27946D02*
X747553Y27946D01*
X743232Y32267D02*
X743232Y23624D01*
D10*
X625861Y162439D02*
X622302Y165998D01*
X622302Y155321D01*
X625861Y155321D02*
X618743Y155321D01*
D12*
X643660Y160661D02*
X652303Y160661D01*
X647982Y164982D02*
X647982Y156339D01*
D10*
X669927Y165998D02*
X673486Y162439D01*
X669927Y165998D02*
X669927Y155321D01*
X673486Y155321D02*
X666368Y155321D01*
D12*
X691285Y160661D02*
X699928Y160661D01*
X695607Y164982D02*
X695607Y156339D01*
D13*
X764646Y48775D02*
X764646Y40132D01*
X764646Y48775D02*
X760324Y48775D01*
X758883Y47335D01*
X758883Y44454D01*
X760324Y43013D01*
X764646Y43013D01*
X761764Y43013D02*
X758883Y40132D01*
X758296Y141732D02*
X758296Y150375D01*
X758296Y141732D02*
X753974Y141732D01*
X752533Y143173D01*
X752533Y148935D01*
X753974Y150375D01*
X758296Y150375D01*
D14*
X762000Y173990D02*
X762000Y181610D01*
D12*
X680212Y44456D02*
X671569Y44456D01*
X675890Y48777D02*
X675890Y40134D01*
X730051Y44456D02*
X738695Y44456D01*
D10*
X37348Y331216D02*
X30230Y331216D01*
X37348Y331216D02*
X30230Y338334D01*
X30230Y340114D01*
X32009Y341893D01*
X35568Y341893D01*
X37348Y340114D01*
X33789Y316493D02*
X37348Y312934D01*
X33789Y316493D02*
X33789Y305816D01*
X37348Y305816D02*
X30230Y305816D01*
D11*
X31645Y285756D02*
X41645Y285756D01*
X41645Y260356D02*
X31645Y260356D01*
X36645Y255357D02*
X36645Y265356D01*
D10*
X152521Y331216D02*
X159639Y331216D01*
X152521Y338334D01*
X152521Y340114D01*
X154300Y341893D01*
X157860Y341893D01*
X159639Y340114D01*
X156080Y316493D02*
X159639Y312934D01*
X156080Y316493D02*
X156080Y305816D01*
X159639Y305816D02*
X152521Y305816D01*
D11*
X149259Y285756D02*
X159258Y285756D01*
X159258Y260356D02*
X149259Y260356D01*
X154258Y255357D02*
X154258Y265356D01*
D10*
X63886Y234194D02*
X60327Y237753D01*
X60327Y227076D01*
X63886Y227076D02*
X56768Y227076D01*
D12*
X81685Y231146D02*
X90328Y231146D01*
X86007Y235467D02*
X86007Y226824D01*
D10*
X107952Y237753D02*
X111511Y234194D01*
X107952Y237753D02*
X107952Y227076D01*
X111511Y227076D02*
X104393Y227076D01*
D12*
X129310Y231146D02*
X137953Y231146D01*
X133632Y235467D02*
X133632Y226824D01*
D10*
X16261Y365639D02*
X12702Y369198D01*
X12702Y358521D01*
X16261Y358521D02*
X9143Y358521D01*
D12*
X34060Y363861D02*
X42703Y363861D01*
X38382Y368182D02*
X38382Y359539D01*
D13*
X155046Y251975D02*
X155046Y243332D01*
X155046Y251975D02*
X150724Y251975D01*
X149283Y250535D01*
X149283Y247654D01*
X150724Y246213D01*
X155046Y246213D01*
X152164Y246213D02*
X149283Y243332D01*
X148696Y344932D02*
X148696Y353575D01*
X148696Y344932D02*
X144374Y344932D01*
X142933Y346373D01*
X142933Y352135D01*
X144374Y353575D01*
X148696Y353575D01*
D14*
X152400Y377190D02*
X152400Y384810D01*
D12*
X70612Y247656D02*
X61969Y247656D01*
X66290Y251977D02*
X66290Y243334D01*
X120451Y247656D02*
X129095Y247656D01*
D10*
X233430Y331216D02*
X240548Y331216D01*
X233430Y338334D01*
X233430Y340114D01*
X235209Y341893D01*
X238768Y341893D01*
X240548Y340114D01*
X236989Y316493D02*
X240548Y312934D01*
X236989Y316493D02*
X236989Y305816D01*
X240548Y305816D02*
X233430Y305816D01*
D11*
X234845Y285756D02*
X244845Y285756D01*
X244845Y260356D02*
X234845Y260356D01*
X239845Y255357D02*
X239845Y265356D01*
D10*
X355721Y331216D02*
X362839Y331216D01*
X355721Y338334D01*
X355721Y340114D01*
X357500Y341893D01*
X361060Y341893D01*
X362839Y340114D01*
X359280Y316493D02*
X362839Y312934D01*
X359280Y316493D02*
X359280Y305816D01*
X362839Y305816D02*
X355721Y305816D01*
D11*
X352459Y285756D02*
X362458Y285756D01*
X362458Y260356D02*
X352459Y260356D01*
X357458Y255357D02*
X357458Y265356D01*
D10*
X267086Y234194D02*
X263527Y237753D01*
X263527Y227076D01*
X267086Y227076D02*
X259968Y227076D01*
D12*
X284885Y231146D02*
X293528Y231146D01*
X289207Y235467D02*
X289207Y226824D01*
D10*
X311152Y237753D02*
X314711Y234194D01*
X311152Y237753D02*
X311152Y227076D01*
X314711Y227076D02*
X307593Y227076D01*
D12*
X332510Y231146D02*
X341153Y231146D01*
X336832Y235467D02*
X336832Y226824D01*
D10*
X219461Y365639D02*
X215902Y369198D01*
X215902Y358521D01*
X219461Y358521D02*
X212343Y358521D01*
D12*
X237260Y363861D02*
X245903Y363861D01*
X241582Y368182D02*
X241582Y359539D01*
D10*
X263527Y369198D02*
X267086Y365639D01*
X263527Y369198D02*
X263527Y358521D01*
X267086Y358521D02*
X259968Y358521D01*
D12*
X284885Y363861D02*
X293528Y363861D01*
X289207Y368182D02*
X289207Y359539D01*
D13*
X358246Y251975D02*
X358246Y243332D01*
X358246Y251975D02*
X353924Y251975D01*
X352483Y250535D01*
X352483Y247654D01*
X353924Y246213D01*
X358246Y246213D01*
X355364Y246213D02*
X352483Y243332D01*
X351896Y344932D02*
X351896Y353575D01*
X351896Y344932D02*
X347574Y344932D01*
X346133Y346373D01*
X346133Y352135D01*
X347574Y353575D01*
X351896Y353575D01*
D14*
X355600Y377190D02*
X355600Y384810D01*
D12*
X332295Y247656D02*
X323651Y247656D01*
D10*
X436630Y331216D02*
X443748Y331216D01*
X436630Y338334D01*
X436630Y340114D01*
X438409Y341893D01*
X441968Y341893D01*
X443748Y340114D01*
X440189Y316493D02*
X443748Y312934D01*
X440189Y316493D02*
X440189Y305816D01*
X443748Y305816D02*
X436630Y305816D01*
D11*
X438045Y285756D02*
X448045Y285756D01*
X448045Y260356D02*
X438045Y260356D01*
X443045Y255357D02*
X443045Y265356D01*
D10*
X558921Y331216D02*
X566039Y331216D01*
X558921Y338334D01*
X558921Y340114D01*
X560700Y341893D01*
X564260Y341893D01*
X566039Y340114D01*
X562480Y316493D02*
X566039Y312934D01*
X562480Y316493D02*
X562480Y305816D01*
X566039Y305816D02*
X558921Y305816D01*
D11*
X555659Y285756D02*
X565658Y285756D01*
X565658Y260356D02*
X555659Y260356D01*
X560658Y255357D02*
X560658Y265356D01*
D10*
X470286Y234194D02*
X466727Y237753D01*
X466727Y227076D01*
X470286Y227076D02*
X463168Y227076D01*
D12*
X488085Y231146D02*
X496728Y231146D01*
X492407Y235467D02*
X492407Y226824D01*
D10*
X514352Y237753D02*
X517911Y234194D01*
X514352Y237753D02*
X514352Y227076D01*
X517911Y227076D02*
X510793Y227076D01*
D12*
X535710Y231146D02*
X544353Y231146D01*
X540032Y235467D02*
X540032Y226824D01*
D10*
X422661Y365639D02*
X419102Y369198D01*
X419102Y358521D01*
X422661Y358521D02*
X415543Y358521D01*
D12*
X440460Y363861D02*
X449103Y363861D01*
X444782Y368182D02*
X444782Y359539D01*
D10*
X466727Y369198D02*
X470286Y365639D01*
X466727Y369198D02*
X466727Y358521D01*
X470286Y358521D02*
X463168Y358521D01*
D12*
X488085Y363861D02*
X496728Y363861D01*
X492407Y368182D02*
X492407Y359539D01*
D13*
X561446Y251975D02*
X561446Y243332D01*
X561446Y251975D02*
X557124Y251975D01*
X555683Y250535D01*
X555683Y247654D01*
X557124Y246213D01*
X561446Y246213D01*
X558564Y246213D02*
X555683Y243332D01*
X555096Y344932D02*
X555096Y353575D01*
X555096Y344932D02*
X550774Y344932D01*
X549333Y346373D01*
X549333Y352135D01*
X550774Y353575D01*
X555096Y353575D01*
D14*
X558800Y377190D02*
X558800Y384810D01*
D12*
X477012Y247656D02*
X468369Y247656D01*
X472690Y251977D02*
X472690Y243334D01*
X526851Y247656D02*
X535495Y247656D01*
D10*
X639830Y331216D02*
X646948Y331216D01*
X639830Y338334D01*
X639830Y340114D01*
X641609Y341893D01*
X645168Y341893D01*
X646948Y340114D01*
X643389Y316493D02*
X646948Y312934D01*
X643389Y316493D02*
X643389Y305816D01*
X646948Y305816D02*
X639830Y305816D01*
D11*
X641245Y285756D02*
X651245Y285756D01*
X651245Y260356D02*
X641245Y260356D01*
X646245Y255357D02*
X646245Y265356D01*
D10*
X762121Y331216D02*
X769239Y331216D01*
X762121Y338334D01*
X762121Y340114D01*
X763900Y341893D01*
X767460Y341893D01*
X769239Y340114D01*
X765680Y316493D02*
X769239Y312934D01*
X765680Y316493D02*
X765680Y305816D01*
X769239Y305816D02*
X762121Y305816D01*
D11*
X758859Y285756D02*
X768858Y285756D01*
X768858Y260356D02*
X758859Y260356D01*
X763858Y255357D02*
X763858Y265356D01*
D10*
X673486Y234194D02*
X669927Y237753D01*
X669927Y227076D01*
X673486Y227076D02*
X666368Y227076D01*
D12*
X691285Y231146D02*
X699928Y231146D01*
X695607Y235467D02*
X695607Y226824D01*
D10*
X717552Y237753D02*
X721111Y234194D01*
X717552Y237753D02*
X717552Y227076D01*
X721111Y227076D02*
X713993Y227076D01*
D12*
X738910Y231146D02*
X747553Y231146D01*
X743232Y235467D02*
X743232Y226824D01*
D10*
X625861Y365639D02*
X622302Y369198D01*
X622302Y358521D01*
X625861Y358521D02*
X618743Y358521D01*
D12*
X643660Y363861D02*
X652303Y363861D01*
X647982Y368182D02*
X647982Y359539D01*
D10*
X669927Y369198D02*
X673486Y365639D01*
X669927Y369198D02*
X669927Y358521D01*
X673486Y358521D02*
X666368Y358521D01*
D12*
X691285Y363861D02*
X699928Y363861D01*
X695607Y368182D02*
X695607Y359539D01*
D13*
X764646Y251975D02*
X764646Y243332D01*
X764646Y251975D02*
X760324Y251975D01*
X758883Y250535D01*
X758883Y247654D01*
X760324Y246213D01*
X764646Y246213D01*
X761764Y246213D02*
X758883Y243332D01*
X758296Y344932D02*
X758296Y353575D01*
X758296Y344932D02*
X753974Y344932D01*
X752533Y346373D01*
X752533Y352135D01*
X753974Y353575D01*
X758296Y353575D01*
D14*
X762000Y377190D02*
X762000Y384810D01*
D12*
X680212Y247656D02*
X671569Y247656D01*
X675890Y251977D02*
X675890Y243334D01*
X730051Y247656D02*
X738695Y247656D01*
M02*
