G04 EAGLE Gerber RS-274X export*
G75*
%MOMM*%
%FSLAX34Y34*%
%LPD*%
%INSoldermask Bottom*%
%IPPOS*%
%AMOC8*
5,1,8,0,0,1.08239X$1,22.5*%
G01*
%ADD10C,0.254000*%
%ADD11C,4.292600*%
%ADD12C,1.910081*%
%ADD13C,2.235200*%
%ADD14C,3.429000*%
%ADD15C,2.082800*%
%ADD16C,1.727200*%


D10*
X139700Y158750D02*
X152400Y158750D01*
X146050Y31750D02*
X158750Y31750D01*
D11*
X95250Y95250D03*
D12*
X44450Y95250D03*
X146050Y95250D03*
D13*
X82550Y44450D03*
X107950Y44450D03*
D14*
X57150Y120650D03*
X120650Y146050D03*
D15*
X159385Y12700D03*
X177346Y30661D03*
X114300Y177800D03*
X139700Y177800D03*
D11*
X298450Y95250D03*
D12*
X247650Y95250D03*
X349250Y95250D03*
D13*
X285750Y44450D03*
X311150Y44450D03*
D14*
X260350Y120650D03*
X323850Y146050D03*
D15*
X362585Y12700D03*
X380546Y30661D03*
X317500Y177800D03*
X342900Y177800D03*
D11*
X501650Y95250D03*
D12*
X450850Y95250D03*
X552450Y95250D03*
D13*
X488950Y44450D03*
X514350Y44450D03*
D14*
X463550Y120650D03*
X527050Y146050D03*
D15*
X565785Y12700D03*
X583746Y30661D03*
X520700Y177800D03*
X546100Y177800D03*
D11*
X704850Y95250D03*
D12*
X654050Y95250D03*
X755650Y95250D03*
D13*
X692150Y44450D03*
X717550Y44450D03*
D14*
X666750Y120650D03*
X730250Y146050D03*
D15*
X768985Y12700D03*
X786946Y30661D03*
X723900Y177800D03*
X749300Y177800D03*
D11*
X95250Y298450D03*
D12*
X44450Y298450D03*
X146050Y298450D03*
D13*
X82550Y247650D03*
X107950Y247650D03*
D14*
X57150Y323850D03*
X120650Y349250D03*
D15*
X159385Y215900D03*
X177346Y233861D03*
X114300Y381000D03*
X139700Y381000D03*
D11*
X298450Y298450D03*
D12*
X247650Y298450D03*
X349250Y298450D03*
D13*
X285750Y247650D03*
X311150Y247650D03*
D14*
X260350Y323850D03*
X323850Y349250D03*
D15*
X362585Y215900D03*
X380546Y233861D03*
X317500Y381000D03*
X342900Y381000D03*
D11*
X501650Y298450D03*
D12*
X450850Y298450D03*
X552450Y298450D03*
D13*
X488950Y247650D03*
X514350Y247650D03*
D14*
X463550Y323850D03*
X527050Y349250D03*
D15*
X565785Y215900D03*
X583746Y233861D03*
X520700Y381000D03*
X546100Y381000D03*
D11*
X704850Y298450D03*
D12*
X654050Y298450D03*
X755650Y298450D03*
D13*
X692150Y247650D03*
X717550Y247650D03*
D14*
X666750Y323850D03*
X730250Y349250D03*
D15*
X768985Y215900D03*
X786946Y233861D03*
X723900Y381000D03*
X749300Y381000D03*
D16*
X800100Y190500D03*
X12700Y190500D03*
X787400Y139700D03*
X63500Y12700D03*
X266700Y12700D03*
X469900Y12700D03*
X673100Y12700D03*
X787400Y342900D03*
M02*
