M48
;GenerationSoftware,Autodesk,EAGLE,9.6.2*%
;CreationDate,2020-07-18T11:31:03Z*%
FMAT,2
ICI,OFF
METRIC,TZ,000.000
T6C0.900
T5C1.016
T4C1.092
T3C1.707
T2C1.753
T1C4.089
%
G90
M71
T1
X9525Y9525
X70485Y9525
X29845Y29845
X29845Y9525
X9525Y29845
X50165Y9525
X70485Y29845
X50165Y29845
T2
X73025Y14605
X66675Y12065
X52705Y14605
X46355Y12065
X32385Y14605
X26035Y12065
X12065Y14605
X26035Y32385
X5715Y12065
X5715Y32385
X12065Y34925
X52705Y34925
X32385Y34925
X46355Y32385
X66675Y32385
X73025Y34925
T3
X75565Y9525
X4445Y29845
X14605Y29845
X34925Y29845
X45085Y29845
X55245Y29845
X65405Y29845
X75565Y29845
X24765Y9525
X4445Y9525
X14605Y9525
X24765Y29845
X34925Y9525
X45085Y9525
X55245Y9525
X65405Y9525
T4
X51435Y4445
X69215Y4445
X71755Y4445
X8255Y24765
X10795Y24765
X10795Y4445
X8255Y4445
X28575Y24765
X31115Y24765
X28575Y4445
X48895Y4445
X48895Y24765
X51435Y24765
X31115Y4445
X69215Y24765
X71755Y24765
T5
X80010Y19050
X26670Y1270
X6350Y1270
X78740Y13970
X1270Y19050
X78740Y34290
X67310Y1270
X46990Y1270
T6
X15938Y1270
X17735Y3066
X11430Y17780
X13970Y17780
X15938Y21590
X17735Y23386
X11430Y38100
X56578Y1270
X58375Y3066
X52070Y17780
X54610Y17780
X36259Y1270
X36259Y21590
X38055Y23386
X31750Y38100
X34290Y38100
X38055Y3066
X31750Y17780
X34290Y17780
X13970Y38100
X56578Y21590
X58375Y23386
X52070Y38100
X54610Y38100
X76899Y1270
X78695Y3066
X72390Y17780
X74930Y17780
X76899Y21590
X78695Y23386
X72390Y38100
X74930Y38100
M30